<svg version="1.1" style="font-family:Roboto;font-size:12px;"
    xmlns="http://www.w3.org/2000/svg" width="650" height="400" viewBox="0 0 650 400">
    <defs>
        <clipPath >
            <rect x="0" y="0" width="630" height="300" fill="none"></rect>
        </clipPath>
    </defs>
    <rect fill="#000000" x="0" y="0" width="650" height="400" rx="0" ry="0"></rect>
    <rect fill="none" x="10" y="47" width="630" height="300"></rect>
    <g data-z-index="0"></g>
    <rect fill="none" data-z-index="1" x="10" y="47" width="630" height="300"></rect>
    <g data-z-index="3">
        <g data-z-index="0.1" opacity="1" transform="translate(10,47) scale(1 1)" style="cursor:pointer;">
            <path fill="green" d="M 314.97678125477876 36.00000236451814 A 114 114 0 0 1 369.3337218732655 250.2189935461269 L 368.857110277886 249.3398795676521 A 113 113 0 0 0 314.97698492798247 37.00000234377674 Z" data-z-index="-1" fill-opacity="0.25" visibility="hidden"></path>
            <path fill="green" d="M 314.97678125477876 36.00000236451814 A 114 114 0 0 1 369.3337218732655 250.2189935461269 L 315 150 A 0 0 0 0 0 315 150 Z" transform="translate(0,0)" stroke="#000000" stroke-width="1" opacity="1" stroke-linejoin="round"></path>
            <path fill="yellow" d="M 369.2334757295639 250.27327714945193 A 114 114 0 0 1 201.39806882798973 159.51846804847523 L 315 150 A 0 0 0 0 0 315 150 Z" transform="translate(0,0)" stroke="#000000" stroke-width="1" opacity="1" stroke-linejoin="round"></path>
            <path fill="red" d="M 201.38860716248854 159.40486137700324 A 114 114 0 0 1 244.8897290760845 60.10812099541377 L 315 150 A 0 0 0 0 0 315 150 Z" transform="translate(0,0)" stroke="#000000" stroke-width="1" opacity="1" stroke-linejoin="round"></path>
            <path fill="darkblue" d="M 244.97965599523968 60.03805568211064 A 114 114 0 0 1 314.84165628705983 36.000109968173334 L 315 150 A 0 0 0 0 0 315 150 Z" transform="translate(0,0)" stroke="#000000" stroke-width="1" opacity="1" stroke-linejoin="round"></path>
        </g>
        <g data-z-index="0.1" opacity="1" transform="translate(10,47) scale(1 1)"></g>
    </g>
    <g data-z-index="3">
        <g stroke-linecap="round" style="cursor:pointer;" transform="translate(616,10)">
            <title>Title</title>
            <rect fill="#000000" x="0.5" y="0.5" width="24" height="22" rx="2" ry="2" stroke="none" stroke-width="1"></rect>
            <path fill="#000000" d="M 6 6.5 L 20 6.5 M 6 11.5 L 20 11.5 M 6 16.5 L 20 16.5" data-z-index="1" stroke="#000000" stroke-width="3"></path>
            <text font-family='monospace' x="0" data-z-index="1" y="12" style="color:#ffffff;font-weight:normal;fill:#ffffff;"></text>
        </g>
    </g>
    <text font-family='monospace' x="325" text-anchor="middle" data-z-index="4" style="color:#ffffff;font-size:18px;fill:#ffffff;" y="24" class="">Languages with the richest Dev Ecosystem 🌍</text>
    <text font-family='monospace' x="325" text-anchor="middle" data-z-index="4" style="color:#666666;fill:#666666;" y="46"></text>
    <text font-family='monospace' x="10" text-anchor="start" data-z-index="4" style="color:#666666;fill:#666666;" y="397"></text>
    <g data-z-index="7" transform="translate(177,359)">
        <rect fill="none" rx="0" ry="0" x="0" y="0" width="295" height="26" visibility="visible"></rect>
        <g data-z-index="1">
            <g>
                <g data-z-index="1" transform="translate(8,3)">
                    <text font-family='monospace' x="21" style="color:#ffffff;cursor:pointer;font-size:12px;font-weight:bold;fill:#ffffff;" text-anchor="start" data-z-index="2" y="15">Python</text>
                    <rect x="2" y="4" width="12" height="12" fill="green" rx="6" ry="6" data-z-index="3"></rect>
                </g>
                <g data-z-index="1" transform="translate(82.77083587646484,3)">
                    <text font-family='monospace' x="21" y="15" style="color:#ffffff;cursor:pointer;font-size:12px;font-weight:bold;fill:#ffffff;" text-anchor="start" data-z-index="2">JS</text>
                    <rect x="2" y="4" width="12" height="12" fill="yellow" rx="6" ry="6" data-z-index="3"></rect>
                </g>
                <g data-z-index="1" transform="translate(157.5416717529297,3)">
                    <text font-family='monospace' x="21" y="15" style="color:#ffffff;cursor:pointer;font-size:12px;font-weight:bold;fill:#ffffff;" text-anchor="start" data-z-index="2">Rust</text>
                    <rect x="2" y="4" width="12" height="12" fill="red" rx="6" ry="6" data-z-index="3"></rect>
                </g>
                <g data-z-index="1" transform="translate(232.31250762939453,3)">
                    <text font-family='monospace' x="21" y="15" style="color:#ffffff;cursor:pointer;font-size:12px;font-weight:bold;fill:#ffffff;" text-anchor="start" data-z-index="2">C++</text>
                    <rect x="2" y="4" width="12" height="12" fill="darkblue" rx="6" ry="6" data-z-index="3"></rect>
                </g>
            </g>
        </g>
    </g>
</svg>